<?xml version="1.0" encoding="UTF-8" standalone="no"?>
<!DOCTYPE svg PUBLIC "-//W3C//DTD SVG 1.1//EN"
 "http://www.w3.org/Graphics/SVG/1.1/DTD/svg11.dtd">
<!-- Generated by graphviz version 2.38.0 (20140413.2041)
 -->
<!-- Title: test Pages: 1 -->
<svg width="1894pt" height="784pt"
 viewBox="0.00 0.00 1894.00 784.00" xmlns="http://www.w3.org/2000/svg" xmlns:xlink="http://www.w3.org/1999/xlink">
<g id="graph0" class="graph" transform="scale(1 1) rotate(0) translate(4 780)">
<title>test</title>
<polygon fill="white" stroke="none" points="-4,4 -4,-780 1890,-780 1890,4 -4,4"/>
<!-- node1 -->
<g id="node1" class="node"><title>node1</title>
<polygon fill="white" stroke="black" points="241.5,-534 241.5,-595 464.5,-595 464.5,-534 241.5,-534"/>
<text text-anchor="middle" x="353" y="-579.8" font-family="Times,serif" font-size="14.00">DemoTarget_country</text>
<polyline fill="none" stroke="black" points="241.5,-572 464.5,-572 "/>
<text text-anchor="start" x="249.5" y="-556.8" font-family="Times,serif" font-size="14.00">&#45; DemoTarget_country_ID</text>
<text text-anchor="start" x="249.5" y="-541.8" font-family="Times,serif" font-size="14.00">&#45; DemoTarget_country_name</text>
</g>
<!-- node8 -->
<g id="node8" class="node"><title>node8</title>
<polygon fill="white" stroke="black" points="832,-143.5 832,-459.5 1182,-459.5 1182,-143.5 832,-143.5"/>
<text text-anchor="middle" x="1007" y="-444.3" font-family="Times,serif" font-size="14.00">DemoTarget_target</text>
<polyline fill="none" stroke="black" points="832,-436.5 1182,-436.5 "/>
<text text-anchor="start" x="840" y="-421.3" font-family="Times,serif" font-size="14.00">&#45; DemoTarget_target_ID</text>
<text text-anchor="start" x="840" y="-406.3" font-family="Times,serif" font-size="14.00">&#45; DemoTarget_target_name</text>
<text text-anchor="start" x="840" y="-391.3" font-family="Times,serif" font-size="14.00">&#45; DemoTarget_target_city</text>
<text text-anchor="start" x="840" y="-376.3" font-family="Times,serif" font-size="14.00">&#45; DemoTarget_target_keyfacts</text>
<text text-anchor="start" x="840" y="-361.3" font-family="Times,serif" font-size="14.00">&#45; DemoTarget_target_revenue</text>
<text text-anchor="start" x="840" y="-346.3" font-family="Times,serif" font-size="14.00">&#45; DemoTarget_target_ebitda</text>
<text text-anchor="start" x="840" y="-331.3" font-family="Times,serif" font-size="14.00">&#45; DemoTarget_target_initial_request_valuation</text>
<text text-anchor="start" x="840" y="-316.3" font-family="Times,serif" font-size="14.00">&#45; DemoTarget_target_effort</text>
<text text-anchor="start" x="840" y="-301.3" font-family="Times,serif" font-size="14.00">&#45; DemoTarget_target_contact_date</text>
<text text-anchor="start" x="840" y="-286.3" font-family="Times,serif" font-size="14.00">&#45; DemoTarget_target_comment</text>
<text text-anchor="start" x="840" y="-271.3" font-family="Times,serif" font-size="14.00">&#45; DemoTarget_target_contact_person_ID</text>
<text text-anchor="start" x="840" y="-256.3" font-family="Times,serif" font-size="14.00">&#45; DemoTarget_target_country</text>
<text text-anchor="start" x="840" y="-241.3" font-family="Times,serif" font-size="14.00">&#45; DemoTarget_target_legal</text>
<text text-anchor="start" x="840" y="-226.3" font-family="Times,serif" font-size="14.00">&#45; DemoTarget_target_match</text>
<text text-anchor="start" x="840" y="-211.3" font-family="Times,serif" font-size="14.00">&#45; DemoTarget_target_investment_type_ID</text>
<text text-anchor="start" x="840" y="-196.3" font-family="Times,serif" font-size="14.00">&#45; DemoTarget_target_lmp_type_ID</text>
<text text-anchor="start" x="840" y="-181.3" font-family="Times,serif" font-size="14.00">&#45; DemoTarget_target_segment_ID</text>
<text text-anchor="start" x="840" y="-166.3" font-family="Times,serif" font-size="14.00">&#45; DemoTarget_target_owner_person_ID</text>
<text text-anchor="start" x="840" y="-151.3" font-family="Times,serif" font-size="14.00">&#45; state_id</text>
</g>
<!-- node1&#45;&gt;node8 -->
<g id="edge1" class="edge"><title>node1&#45;&gt;node8</title>
<path fill="none" stroke="black" d="M401.382,-533.88C422.888,-521.348 448.774,-507.111 473,-496 586.317,-444.028 717.95,-396.196 822.17,-361.09"/>
<polygon fill="none" stroke="black" points="823.484,-364.341 831.849,-357.84 821.255,-357.705 823.484,-364.341"/>
</g>
<!-- node2 -->
<g id="node2" class="node"><title>node2</title>
<polygon fill="white" stroke="black" points="482.5,-534 482.5,-595 769.5,-595 769.5,-534 482.5,-534"/>
<text text-anchor="middle" x="626" y="-579.8" font-family="Times,serif" font-size="14.00">DemoTarget_investment_type</text>
<polyline fill="none" stroke="black" points="482.5,-572 769.5,-572 "/>
<text text-anchor="start" x="490.5" y="-556.8" font-family="Times,serif" font-size="14.00">&#45; DemoTarget_investment_type_ID</text>
<text text-anchor="start" x="490.5" y="-541.8" font-family="Times,serif" font-size="14.00">&#45; DemoTarget_investment_type_name</text>
</g>
<!-- node2&#45;&gt;node8 -->
<g id="edge2" class="edge"><title>node2&#45;&gt;node8</title>
<path fill="none" stroke="black" d="M669.335,-533.814C707.536,-507.644 765.926,-467.645 823.467,-428.227"/>
<polygon fill="none" stroke="black" points="825.676,-430.957 831.948,-422.418 821.72,-425.182 825.676,-430.957"/>
</g>
<!-- node3 -->
<g id="node3" class="node"><title>node3</title>
<polygon fill="white" stroke="black" points="788,-534 788,-595 990,-595 990,-534 788,-534"/>
<text text-anchor="middle" x="889" y="-579.8" font-family="Times,serif" font-size="14.00">DemoTarget_legal</text>
<polyline fill="none" stroke="black" points="788,-572 990,-572 "/>
<text text-anchor="start" x="796" y="-556.8" font-family="Times,serif" font-size="14.00">&#45; DemoTarget_legal_ID</text>
<text text-anchor="start" x="796" y="-541.8" font-family="Times,serif" font-size="14.00">&#45; DemoTarget_legal_name</text>
</g>
<!-- node3&#45;&gt;node8 -->
<g id="edge3" class="edge"><title>node3&#45;&gt;node8</title>
<path fill="none" stroke="black" d="M902.421,-533.814C910.141,-516.738 920.524,-493.774 931.758,-468.926"/>
<polygon fill="none" stroke="black" points="935.001,-470.247 935.932,-459.693 928.623,-467.363 935.001,-470.247"/>
</g>
<!-- node4 -->
<g id="node4" class="node"><title>node4</title>
<polygon fill="white" stroke="black" points="1008.5,-534 1008.5,-595 1241.5,-595 1241.5,-534 1008.5,-534"/>
<text text-anchor="middle" x="1125" y="-579.8" font-family="Times,serif" font-size="14.00">DemoTarget_lmp_type</text>
<polyline fill="none" stroke="black" points="1008.5,-572 1241.5,-572 "/>
<text text-anchor="start" x="1016.5" y="-556.8" font-family="Times,serif" font-size="14.00">&#45; DemoTarget_lmp_type_ID</text>
<text text-anchor="start" x="1016.5" y="-541.8" font-family="Times,serif" font-size="14.00">&#45; DemoTarget_lmp_type_name</text>
</g>
<!-- node4&#45;&gt;node8 -->
<g id="edge4" class="edge"><title>node4&#45;&gt;node8</title>
<path fill="none" stroke="black" d="M1111.58,-533.814C1103.86,-516.738 1093.48,-493.774 1082.24,-468.926"/>
<polygon fill="none" stroke="black" points="1085.38,-467.363 1078.07,-459.693 1079,-470.247 1085.38,-467.363"/>
</g>
<!-- node5 -->
<g id="node5" class="node"><title>node5</title>
<polygon fill="white" stroke="black" points="1259,-534 1259,-595 1471,-595 1471,-534 1259,-534"/>
<text text-anchor="middle" x="1365" y="-579.8" font-family="Times,serif" font-size="14.00">DemoTarget_match</text>
<polyline fill="none" stroke="black" points="1259,-572 1471,-572 "/>
<text text-anchor="start" x="1267" y="-556.8" font-family="Times,serif" font-size="14.00">&#45; DemoTarget_match_ID</text>
<text text-anchor="start" x="1267" y="-541.8" font-family="Times,serif" font-size="14.00">&#45; DemoTarget_match_name</text>
</g>
<!-- node5&#45;&gt;node8 -->
<g id="edge5" class="edge"><title>node5&#45;&gt;node8</title>
<path fill="none" stroke="black" d="M1324.28,-533.814C1290.79,-509.4 1240.8,-472.951 1190.34,-436.166"/>
<polygon fill="none" stroke="black" points="1192.39,-433.324 1182.24,-430.261 1188.26,-438.98 1192.39,-433.324"/>
</g>
<!-- node6 -->
<g id="node6" class="node"><title>node6</title>
<polygon fill="white" stroke="black" points="0,-526.5 0,-602.5 224,-602.5 224,-526.5 0,-526.5"/>
<text text-anchor="middle" x="112" y="-587.3" font-family="Times,serif" font-size="14.00">DemoTarget_person</text>
<polyline fill="none" stroke="black" points="0,-579.5 224,-579.5 "/>
<text text-anchor="start" x="8" y="-564.3" font-family="Times,serif" font-size="14.00">&#45; DemoTarget_person_ID</text>
<text text-anchor="start" x="8" y="-549.3" font-family="Times,serif" font-size="14.00">&#45; DemoTarget_person_name</text>
<text text-anchor="start" x="8" y="-534.3" font-family="Times,serif" font-size="14.00">&#45; DemoTarget_person_e_mail</text>
</g>
<!-- node6&#45;&gt;node8 -->
<g id="edge6" class="edge"><title>node6&#45;&gt;node8</title>
<path fill="none" stroke="black" d="M167.265,-526.424C186.932,-514.881 209.736,-503.282 232,-496 359.217,-454.391 400.368,-489.168 531,-460 628.95,-438.129 735.225,-404.01 822.457,-373.113"/>
<polygon fill="none" stroke="black" points="823.666,-376.397 831.915,-369.749 821.32,-369.802 823.666,-376.397"/>
</g>
<!-- node9 -->
<g id="node9" class="node"><title>node9</title>
<polygon fill="white" stroke="black" points="908,-0.5 908,-106.5 1106,-106.5 1106,-0.5 908,-0.5"/>
<text text-anchor="middle" x="1007" y="-91.3" font-family="Times,serif" font-size="14.00">DemoTarget_task</text>
<polyline fill="none" stroke="black" points="908,-83.5 1106,-83.5 "/>
<text text-anchor="start" x="916" y="-68.3" font-family="Times,serif" font-size="14.00">&#45; DemoTarget_task_ID</text>
<text text-anchor="start" x="916" y="-53.3" font-family="Times,serif" font-size="14.00">&#45; DemoTarget_task_name</text>
<text text-anchor="start" x="916" y="-38.3" font-family="Times,serif" font-size="14.00">&#45; DemoTarget_person_ID</text>
<text text-anchor="start" x="916" y="-23.3" font-family="Times,serif" font-size="14.00">&#45; DemoTarget_target_ID</text>
<text text-anchor="start" x="916" y="-8.3" font-family="Times,serif" font-size="14.00">&#45; state_id</text>
</g>
<!-- node6&#45;&gt;node9 -->
<g id="edge7" class="edge"><title>node6&#45;&gt;node9</title>
<path fill="none" stroke="black" d="M170.939,-526.302C291.5,-450.74 575.783,-275.244 823,-143 847.219,-130.045 873.633,-116.824 898.696,-104.686"/>
<polygon fill="none" stroke="black" points="900.375,-107.762 907.861,-100.265 897.334,-101.457 900.375,-107.762"/>
</g>
<!-- node7 -->
<g id="node7" class="node"><title>node7</title>
<polygon fill="white" stroke="black" points="1489.5,-534 1489.5,-595 1718.5,-595 1718.5,-534 1489.5,-534"/>
<text text-anchor="middle" x="1604" y="-579.8" font-family="Times,serif" font-size="14.00">DemoTarget_segment</text>
<polyline fill="none" stroke="black" points="1489.5,-572 1718.5,-572 "/>
<text text-anchor="start" x="1497.5" y="-556.8" font-family="Times,serif" font-size="14.00">&#45; DemoTarget_segment_ID</text>
<text text-anchor="start" x="1497.5" y="-541.8" font-family="Times,serif" font-size="14.00">&#45; DemoTarget_segment_name</text>
</g>
<!-- node7&#45;&gt;node8 -->
<g id="edge8" class="edge"><title>node7&#45;&gt;node8</title>
<path fill="none" stroke="black" d="M1553.2,-533.864C1531.06,-521.47 1504.59,-507.343 1480,-496 1439.38,-477.264 1427.55,-476.586 1386,-460 1322.43,-434.622 1253.19,-406.111 1191.5,-380.393"/>
<polygon fill="none" stroke="black" points="1192.64,-377.075 1182.06,-376.455 1189.94,-383.535 1192.64,-377.075"/>
</g>
<!-- node8&#45;&gt;node9 -->
<g id="edge9" class="edge"><title>node8&#45;&gt;node9</title>
<path fill="none" stroke="black" d="M1007,-143.312C1007,-134.073 1007,-125.114 1007,-116.667"/>
<polygon fill="none" stroke="black" points="1010.5,-116.633 1007,-106.633 1003.5,-116.633 1010.5,-116.633"/>
</g>
<!-- node10 -->
<g id="node10" class="node"><title>node10</title>
<polygon fill="white" stroke="black" points="1736.5,-496.5 1736.5,-632.5 1879.5,-632.5 1879.5,-496.5 1736.5,-496.5"/>
<text text-anchor="middle" x="1808" y="-617.3" font-family="Times,serif" font-size="14.00">state</text>
<polyline fill="none" stroke="black" points="1736.5,-609.5 1879.5,-609.5 "/>
<text text-anchor="start" x="1744.5" y="-594.3" font-family="Times,serif" font-size="14.00">&#45; state_id</text>
<text text-anchor="start" x="1744.5" y="-579.3" font-family="Times,serif" font-size="14.00">&#45; name</text>
<text text-anchor="start" x="1744.5" y="-564.3" font-family="Times,serif" font-size="14.00">&#45; form_data</text>
<text text-anchor="start" x="1744.5" y="-549.3" font-family="Times,serif" font-size="14.00">&#45; entrypoint</text>
<text text-anchor="start" x="1744.5" y="-534.3" font-family="Times,serif" font-size="14.00">&#45; statemachine_id</text>
<text text-anchor="start" x="1744.5" y="-519.3" font-family="Times,serif" font-size="14.00">&#45; script_IN</text>
<text text-anchor="start" x="1744.5" y="-504.3" font-family="Times,serif" font-size="14.00">&#45; script_OUT</text>
</g>
<!-- node10&#45;&gt;node8 -->
<g id="edge10" class="edge"><title>node10&#45;&gt;node8</title>
<path fill="none" stroke="black" d="M1736.44,-500.02C1733.66,-498.559 1730.84,-497.211 1728,-496 1587.4,-436.078 1534.11,-497.719 1386,-460 1320.81,-443.399 1252.17,-417.624 1191.47,-391.698"/>
<polygon fill="none" stroke="black" points="1192.76,-388.442 1182.19,-387.706 1189.99,-394.872 1192.76,-388.442"/>
</g>
<!-- node10&#45;&gt;node9 -->
<g id="edge11" class="edge"><title>node10&#45;&gt;node9</title>
<path fill="none" stroke="black" d="M1736.37,-502.37C1733.56,-500.196 1730.77,-498.065 1728,-496 1499.11,-325.159 1439.58,-283.656 1191,-143 1166.96,-129.396 1140.5,-115.874 1115.33,-103.643"/>
<polygon fill="none" stroke="black" points="1116.65,-100.393 1106.12,-99.1983 1113.61,-106.697 1116.65,-100.393"/>
</g>
<!-- node12 -->
<g id="node12" class="node"><title>node12</title>
<polygon fill="white" stroke="black" points="1735.5,-256 1735.5,-347 1880.5,-347 1880.5,-256 1735.5,-256"/>
<text text-anchor="middle" x="1808" y="-331.8" font-family="Times,serif" font-size="14.00">state_rules</text>
<polyline fill="none" stroke="black" points="1735.5,-324 1880.5,-324 "/>
<text text-anchor="start" x="1743.5" y="-308.8" font-family="Times,serif" font-size="14.00">&#45; state_rules_id</text>
<text text-anchor="start" x="1743.5" y="-293.8" font-family="Times,serif" font-size="14.00">&#45; state_id_FROM</text>
<text text-anchor="start" x="1743.5" y="-278.8" font-family="Times,serif" font-size="14.00">&#45; state_id_TO</text>
<text text-anchor="start" x="1743.5" y="-263.8" font-family="Times,serif" font-size="14.00">&#45; transition_script</text>
</g>
<!-- node10&#45;&gt;node12 -->
<g id="edge12" class="edge"><title>node10&#45;&gt;node12</title>
<path fill="none" stroke="black" d="M1808,-496.286C1808,-453.213 1808,-398.004 1808,-357.54"/>
<polygon fill="black" stroke="black" points="1811.5,-357.326 1808,-347.326 1804.5,-357.326 1811.5,-357.326"/>
</g>
<!-- node11 -->
<g id="node11" class="node"><title>node11</title>
<polygon fill="white" stroke="black" points="1730,-669.5 1730,-775.5 1886,-775.5 1886,-669.5 1730,-669.5"/>
<text text-anchor="middle" x="1808" y="-760.3" font-family="Times,serif" font-size="14.00">state_machines</text>
<polyline fill="none" stroke="black" points="1730,-752.5 1886,-752.5 "/>
<text text-anchor="start" x="1738" y="-737.3" font-family="Times,serif" font-size="14.00">&#45; id</text>
<text text-anchor="start" x="1738" y="-722.3" font-family="Times,serif" font-size="14.00">&#45; tablename</text>
<text text-anchor="start" x="1738" y="-707.3" font-family="Times,serif" font-size="14.00">&#45; transition_script</text>
<text text-anchor="start" x="1738" y="-692.3" font-family="Times,serif" font-size="14.00">&#45; form_data_default</text>
<text text-anchor="start" x="1738" y="-677.3" font-family="Times,serif" font-size="14.00">&#45; form_data</text>
</g>
<!-- node11&#45;&gt;node10 -->
<g id="edge13" class="edge"><title>node11&#45;&gt;node10</title>
<path fill="none" stroke="black" d="M1808,-669.12C1808,-660.631 1808,-651.687 1808,-642.755"/>
<polygon fill="black" stroke="black" points="1811.5,-642.701 1808,-632.701 1804.5,-642.701 1811.5,-642.701"/>
</g>
</g>
</svg>
